<svg xmlns="http://www.w3.org/2000/svg" width="1200" height="540" viewBox="0 0 1200 540" fill="none" role="img" aria-labelledby="heroTitle heroDesc">
  <title id="heroTitle">varad@more — Software Engineer</title>
  <desc id="heroDesc">An ASCII scene: someone walks to a desk, sits down, opens a laptop and runs a script, and the terminal window beside them prints the profile of Varad More, a software engineer working on AI systems, accelerated computing, cloud infrastructure and product engineering.</desc>

  <defs>
    <radialGradient id="aurora">
      <stop offset="0%" stop-color="#7C5CFF" stop-opacity="0.20"/><stop offset="100%" stop-color="#7C5CFF" stop-opacity="0"/>
    </radialGradient>
    <radialGradient id="cool">
      <stop offset="0%" stop-color="#22D3EE" stop-opacity="0.12"/><stop offset="100%" stop-color="#22D3EE" stop-opacity="0"/>
    </radialGradient>
    <radialGradient id="screenGlow">
      <stop offset="0%" stop-color="#8B7BFF" stop-opacity="0.42"/><stop offset="100%" stop-color="#7C5CFF" stop-opacity="0"/>
    </radialGradient>
    <radialGradient id="bulb">
      <stop offset="0%" stop-color="#FFCE8A" stop-opacity="0.30"/><stop offset="100%" stop-color="#FFCE8A" stop-opacity="0"/>
    </radialGradient>
    <linearGradient id="beam" x1="0" y1="0" x2="0" y2="1">
      <stop offset="0%" stop-color="#FFC078" stop-opacity="0.14"/><stop offset="55%" stop-color="#FFC078" stop-opacity="0.04"/><stop offset="100%" stop-color="#FFC078" stop-opacity="0"/>
    </linearGradient>
    <filter id="soft" x="-40%" y="-25%" width="180%" height="150%">
      <feGaussianBlur stdDeviation="16"/>
    </filter>
    <linearGradient id="night" x1="0" y1="0" x2="0" y2="1">
      <stop offset="0%" stop-color="#101B33"/><stop offset="100%" stop-color="#1B2440"/>
    </linearGradient>
    <linearGradient id="floor" x1="0" y1="0" x2="0" y2="1">
      <stop offset="0%" stop-color="#B9C6FF" stop-opacity="0.05"/><stop offset="100%" stop-color="#B9C6FF" stop-opacity="0"/>
    </linearGradient>
    <linearGradient id="edge" x1="0" y1="0" x2="1" y2="0">
      <stop offset="0%" stop-color="#05070B"/><stop offset="100%" stop-color="#05070B" stop-opacity="0"/>
    </linearGradient>
    <linearGradient id="bar" x1="0" y1="0" x2="0" y2="1">
      <stop offset="0%" stop-color="#2A323F"/><stop offset="100%" stop-color="#181F28"/>
    </linearGradient>
    <!-- the card is a room photographed, not a swatch: light off the top,
         weight at the bottom, and the corners falling away -->
    <linearGradient id="sky" x1="0" y1="0" x2="0" y2="1">
      <stop offset="0%" stop-color="#111624"/><stop offset="55%" stop-color="#0B0E14"/><stop offset="100%" stop-color="#07090E"/>
    </linearGradient>
    <radialGradient id="vignette" cx="50%" cy="46%" r="72%">
      <stop offset="55%" stop-color="#000000" stop-opacity="0"/><stop offset="100%" stop-color="#000000" stop-opacity="0.55"/>
    </radialGradient>
    <!-- the terminal's own glass: a lit panel, brightest just under the bar -->
    <linearGradient id="glass" x1="0" y1="0" x2="0" y2="1">
      <stop offset="0%" stop-color="#141A23"/><stop offset="30%" stop-color="#0D1119"/><stop offset="100%" stop-color="#080B10"/>
    </linearGradient>
    <radialGradient id="termGlow" cx="50%" cy="50%" r="50%">
      <stop offset="0%" stop-color="#4E7BFF" stop-opacity="0.16"/><stop offset="100%" stop-color="#4E7BFF" stop-opacity="0"/>
    </radialGradient>
    <filter id="drop" x="-20%" y="-20%" width="140%" height="140%">
      <feDropShadow dx="0" dy="12" stdDeviation="20" flood-color="#000000" flood-opacity="0.6"/>
    </filter>
    <clipPath id="card"><rect width="1200" height="540" rx="16"/></clipPath>
  </defs>

  <style>
    text { font-family: ui-monospace, SFMono-Regular, "SF Mono", Menlo, Consolas, "Liberation Mono", monospace; font-size: 13px }
    .dim { fill: #6E7681 }
    .sm  { font-size: 12px }
    .art { font-size: 18px }
    /* the figure carries a little stroke weight so it reads as the subject
       and the room stays line art behind it */
    .fig { stroke: #C4B5FD; stroke-width: .8 }
    .litfig { stroke: #E9DDFF }

    /* hidden until its delay, then visible for good */
    @keyframes in { from { opacity: 0 } to { opacity: 1 } }
    .in  { animation: in .3s cubic-bezier(.16,1,.3,1) both }
    /* visible only for its own slice of the timeline */
    @keyframes seg { 0%, 100% { opacity: 1 } }
    .seg { opacity: 0; animation-name: seg; animation-timing-function: step-end; animation-iteration-count: 1 }

    .lit    { animation: in .5s 2.95s backwards }
    .hands  { animation: in .01s 2.99s backwards }

    /* seated, then lit: the screen coming on is what warms the figure, so the
       fill animates on the same element rather than fading in a second copy */
    .body { animation: in .01s 2.31s backwards, litup .9s 2.95s both }
    @keyframes litup { to { fill: #E9DDFF; stroke: #E9DDFF } }

    /* a head that never moves is a mannequin. Down to the keys, back up to
       the screen — two pixels, on the `translate` property so it composes
       with the transform attribute that put the figure at the chair. */
    .nod { animation: in .01s 2.31s backwards, litup .9s 2.95s both,
                      nod 7s 2.99s ease-in-out infinite }
    @keyframes nod { 0%, 40%, 100% { translate: 0 0 } 55%, 75% { translate: 0 2px } }

    /* the pendant, switched on at the door — one flicker, then steady */
    .lamp { animation: lamp .6s 1.92s both }
    @keyframes lamp { 0%, 20% { opacity: 0 } 30% { opacity: 1 } 42% { opacity: .2 } 100% { opacity: 1 } }

    @keyframes steam { 0% { opacity: 0; transform: translateY(7px) } 30% { opacity: .5 } 100% { opacity: 0; transform: translateY(-17px) } }
    .steam  { opacity: 0; animation: steam 4.6s ease-out infinite }
    .steam2 { animation-delay: 2.3s }

    /* fingers working, once the hands are on the keys */
    @keyframes flip { 0% { opacity: 1 } 50%, 100% { opacity: 0 } }
    .ha { animation: flip .8s step-end 2.99s infinite }
    .hb { opacity: 0; animation: flip .8s step-end 3.39s infinite }

    /* the command types in one character at a time. Both ends of the keyframe
       are inset() over the text's own box, so it interpolates cleanly and the
       resting state — animation off — is the whole line, already run. */
    .type { clip-path: inset(-30% -6% -30% 0); animation: type .7s steps(12) 3.25s backwards }
    @keyframes type { from { clip-path: inset(-30% 100% -30% 0) } }

    .focus { opacity: 0; animation: focus 14s step-end 5.05s infinite }
    .f1 { opacity: 1 }
    .f2 { animation-delay: 8.55s } .f3 { animation-delay: 12.05s } .f4 { animation-delay: 15.55s }
    @keyframes focus { 0% { opacity: 1 } 25%, 100% { opacity: 0 } }

    .halo { transform-origin: 739px 346px; animation: halo 2.6s ease-out 6.4s infinite }
    @keyframes halo { 0% { transform: scale(.6); opacity: .8 } 100% { transform: scale(2.8); opacity: 0 } }

    .caret { animation: caret 1.1s steps(1) infinite }
    @keyframes caret { 0%, 50% { opacity: 1 } 51%, 100% { opacity: 0 } }
    .caret2 { animation: in .01s 6.4s backwards, caret 1.1s steps(1) 6.4s infinite }

    .glow { animation: in 1.4s 2.95s backwards, breathe 5s 2.95s ease-in-out infinite }
    @keyframes breathe { 0%, 100% { opacity: .7 } 50% { opacity: 1 } }

    @media (prefers-reduced-motion: reduce) {
      .in, .lit, .body, .nod, .hands, .halo, .caret, .caret2,
      .glow, .ha, .hb, .lamp, .steam { animation: none }
      .body { fill: #E9DDFF; stroke: #E9DDFF }
      .steam { opacity: 0 }
      .type { animation: none; clip-path: none }
      .seg { animation: none; opacity: 0 }
      .hb, .halo { opacity: 0 }
      .focus { animation: none; opacity: 0 } .f1 { opacity: 1 }
    }
  </style>

  <g clip-path="url(#card)">
    <rect width="1200" height="540" fill="url(#sky)"/>
    <ellipse cx="330" cy="330" rx="400" ry="270" fill="url(#aurora)"/>
    <ellipse cx="900" cy="150" rx="460" ry="320" fill="url(#cool)"/>

    <!-- left: the room, after dark -->
    <rect x="470" y="187" width="110" height="88" fill="url(#night)"/>
    <g fill="#FFD9A8" fill-opacity="0.5"><circle cx="492" cy="251" r="1.3"/><circle cx="517" cy="258" r="1"/><circle cx="542" cy="246" r="1.5"/><circle cx="559" cy="255" r="1.1"/></g>
    <text class="art " xml:space="preserve" fill="#3B4757"><tspan x="34" y="200">                                        ┌────┬────┐</tspan><tspan x="34" y="218">                                        │    │    │</tspan><tspan x="34" y="236">                                        ├────┼────┤</tspan><tspan x="34" y="254">                                        │    │    │</tspan><tspan x="34" y="272">                                        └────┴────┘</tspan></text>
    <rect y="452" width="620" height="88" fill="url(#floor)"/>

    <g class="lamp">
      <polygon points="331,170 375,170 505,456 201,456" fill="url(#beam)" filter="url(#soft)"/>
      <ellipse cx="353" cy="170" rx="58" ry="17" fill="url(#bulb)"/>
    </g>
    <line x1="352" y1="0" x2="352" y2="150" stroke="#4E5D70" stroke-width="1.2"/>
    <text class="art " xml:space="preserve" fill="#4E5D70"><tspan x="34" y="164">                         ╭───┴───╮</tspan></text>
    <text class="art " xml:space="preserve" fill="#3B4757"><tspan x="34" y="218">     ┌───────┐</tspan><tspan x="34" y="236">     │ ▁▂▃▂▁ │</tspan><tspan x="34" y="254">     └───────┘</tspan></text>
    <text class="art " xml:space="preserve" fill="#4E5D70"><tspan x="34" y="362">                  ═════════════════════════════</tspan><tspan x="34" y="380">                        ║                     ║</tspan><tspan x="34" y="398">                        ║                     ║</tspan><tspan x="34" y="416">                        ║                     ║</tspan><tspan x="34" y="434">                        ║                     ║</tspan><tspan x="34" y="452">  ──────────────────────╨─────────────────────╨──────</tspan></text>
    <text class="art " xml:space="preserve" fill="#3F7A55"><tspan x="34" y="380">                                                 ╲│╱</tspan><tspan x="34" y="398">                                                  │</tspan><tspan x="34" y="416">                                                 ┌─┐</tspan><tspan x="34" y="434">                                                 │ │</tspan><tspan x="34" y="452">                                                 └─┘</tspan></text>
    <text class="art " xml:space="preserve" fill="#4E5D70"><tspan x="34" y="326">            ╭─╮</tspan><tspan x="34" y="344">            │</tspan><tspan x="34" y="362">            │</tspan><tspan x="34" y="380">            │</tspan><tspan x="34" y="398">            ╰─────╮</tspan><tspan x="34" y="416">               │</tspan><tspan x="34" y="434">               │</tspan><tspan x="34" y="452">               ╨</tspan></text>
    <text class="art " xml:space="preserve" fill="#F0883E"><tspan x="34" y="344">                                          ╭─╮╮</tspan><tspan x="34" y="362">                                          ╰─╯╯</tspan></text>
    <text class="steam sm" x="498" y="336" fill="#8A8FA0" xml:space="preserve">~</text>
    <text class="steam steam2 sm" x="504" y="336" fill="#8A8FA0" xml:space="preserve">~</text>

    <ellipse class="glow" cx="353" cy="308" rx="130" ry="58" fill="url(#screenGlow)"/>
    <text class="art seg" xml:space="preserve" fill="#4E5D70" style="animation-delay:0.00s;animation-duration:2.49s"><tspan x="34" y="344">                      ┌──────────────┐</tspan><tspan x="34" y="362">                      └──────────────┘</tspan></text>
    <text class="art seg" xml:space="preserve" fill="#4E5D70" style="animation-delay:2.49s;animation-duration:0.13s"><tspan x="34" y="326">                        ┌──────────┐</tspan><tspan x="34" y="344">                      ┌─┴──────────┴─┐</tspan><tspan x="34" y="362">                      └──────────────┘</tspan></text>
    <text class="art seg" xml:space="preserve" fill="#4E5D70" style="animation-delay:2.62s;animation-duration:0.13s"><tspan x="34" y="308">                        ┌──────────┐</tspan><tspan x="34" y="326">                        │          │</tspan><tspan x="34" y="344">                      ┌─┴──────────┴─┐</tspan><tspan x="34" y="362">                      └──────────────┘</tspan></text>
    <text class="art in" xml:space="preserve" fill="#4E5D70" style="animation-delay:2.75s"><tspan x="34" y="290">                        ┌──────────┐</tspan><tspan x="34" y="308">                        │          │</tspan><tspan x="34" y="326">                        │          │</tspan><tspan x="34" y="344">                      ┌─┴──────────┴─┐</tspan><tspan x="34" y="362">                      └──────────────┘</tspan></text>
    <g class="lit">
    <text class="art " xml:space="preserve" fill="#7EE787"><tspan x="34" y="308">                         % profile</tspan><tspan x="34" y="326">                         ▁▂▄▃▅▇▆▇▅▆</tspan></text>
      <rect class="caret" x="401" y="296" width="9" height="14" fill="#7EE787" fill-opacity="0.85"/>
    </g>

    <text class="art seg fig" xml:space="preserve" fill="#C4B5FD" transform="translate(-118.8 0)" style="animation-delay:0.00s;animation-duration:0.08s"><tspan x="34" y="272">   ╭─╮</tspan><tspan x="34" y="290">   ╰┬╯</tspan><tspan x="34" y="308">  ╭─┴─╮</tspan><tspan x="34" y="326">  ╱   │</tspan><tspan x="34" y="344">╱ ╰╮ ╭╯</tspan><tspan x="34" y="362">   ╰┬╯</tspan><tspan x="34" y="380">   ╱ ╲</tspan><tspan x="34" y="398">  ╱   ╲</tspan><tspan x="34" y="416">  │   │</tspan><tspan x="34" y="434">  │   │</tspan><tspan x="34" y="452">  ┴   ┴</tspan></text>
    <text class="art seg fig" xml:space="preserve" fill="#C4B5FD" transform="translate(-108.0 2)" style="animation-delay:0.08s;animation-duration:0.08s"><tspan x="34" y="272">   ╭─╮</tspan><tspan x="34" y="290">   ╰┬╯</tspan><tspan x="34" y="308">  ╭─┴─╮</tspan><tspan x="34" y="326">  ╱   │</tspan><tspan x="34" y="344">  ╰╮ ╭╯</tspan><tspan x="34" y="362">   ╰┬╯</tspan><tspan x="34" y="380">   ╱╲</tspan><tspan x="34" y="398">  ╱  ╲</tspan><tspan x="34" y="416">  │  │</tspan><tspan x="34" y="434">  │  │</tspan><tspan x="34" y="452">  ╵  ┴</tspan></text>
    <text class="art seg fig" xml:space="preserve" fill="#C4B5FD" transform="translate(-97.2 -3)" style="animation-delay:0.16s;animation-duration:0.08s"><tspan x="34" y="272">   ╭─╮</tspan><tspan x="34" y="290">   ╰┬╯</tspan><tspan x="34" y="308">  ╭─┴─╮</tspan><tspan x="34" y="326">  │   ╲</tspan><tspan x="34" y="344">  ╰╮ ╭╯</tspan><tspan x="34" y="362">   ╰┬╯</tspan><tspan x="34" y="380">    │╲</tspan><tspan x="34" y="398">    │ ╵</tspan><tspan x="34" y="416">    │</tspan><tspan x="34" y="434">    │</tspan><tspan x="34" y="452">    ┴</tspan></text>
    <text class="art seg fig" xml:space="preserve" fill="#C4B5FD" transform="translate(-86.4 -1)" style="animation-delay:0.24s;animation-duration:0.08s"><tspan x="34" y="272">   ╭─╮</tspan><tspan x="34" y="290">   ╰┬╯</tspan><tspan x="34" y="308">  ╭─┴─╮</tspan><tspan x="34" y="326">  │   ╲</tspan><tspan x="34" y="344">  ╰╮ ╭╯╲</tspan><tspan x="34" y="362">   ╰┬╯</tspan><tspan x="34" y="380">   ╱╲</tspan><tspan x="34" y="398">   │ ╲</tspan><tspan x="34" y="416">   │  │</tspan><tspan x="34" y="434">   │  ╵</tspan><tspan x="34" y="452">   ┴</tspan></text>
    <text class="art seg fig" xml:space="preserve" fill="#C4B5FD" transform="translate(-75.6 0)" style="animation-delay:0.32s;animation-duration:0.08s"><tspan x="34" y="272">   ╭─╮</tspan><tspan x="34" y="290">   ╰┬╯</tspan><tspan x="34" y="308">  ╭─┴─╮</tspan><tspan x="34" y="326">  │   ╲</tspan><tspan x="34" y="344">  ╰╮ ╭╯╲</tspan><tspan x="34" y="362">   ╰┬╯</tspan><tspan x="34" y="380">   ╱ ╲</tspan><tspan x="34" y="398">  ╱   ╲</tspan><tspan x="34" y="416">  │   │</tspan><tspan x="34" y="434">  │   │</tspan><tspan x="34" y="452">  ┴   ┴</tspan></text>
    <text class="art seg fig" xml:space="preserve" fill="#C4B5FD" transform="translate(-64.8 2)" style="animation-delay:0.40s;animation-duration:0.08s"><tspan x="34" y="272">   ╭─╮</tspan><tspan x="34" y="290">   ╰┬╯</tspan><tspan x="34" y="308">  ╭─┴─╮</tspan><tspan x="34" y="326">  │   ╲</tspan><tspan x="34" y="344">  ╰╮ ╭╯</tspan><tspan x="34" y="362">   ╰┬╯</tspan><tspan x="34" y="380">   ╱╲</tspan><tspan x="34" y="398">  ╱  ╲</tspan><tspan x="34" y="416">  │  │</tspan><tspan x="34" y="434">  │  │</tspan><tspan x="34" y="452">  ╵  ┴</tspan></text>
    <text class="art seg fig" xml:space="preserve" fill="#C4B5FD" transform="translate(-54.0 -3)" style="animation-delay:0.48s;animation-duration:0.08s"><tspan x="34" y="272">   ╭─╮</tspan><tspan x="34" y="290">   ╰┬╯</tspan><tspan x="34" y="308">  ╭─┴─╮</tspan><tspan x="34" y="326">  ╱   │</tspan><tspan x="34" y="344">  ╰╮ ╭╯</tspan><tspan x="34" y="362">   ╰┬╯</tspan><tspan x="34" y="380">    │╲</tspan><tspan x="34" y="398">    │ ╵</tspan><tspan x="34" y="416">    │</tspan><tspan x="34" y="434">    │</tspan><tspan x="34" y="452">    ┴</tspan></text>
    <text class="art seg fig" xml:space="preserve" fill="#C4B5FD" transform="translate(-43.2 -1)" style="animation-delay:0.56s;animation-duration:0.08s"><tspan x="34" y="272">   ╭─╮</tspan><tspan x="34" y="290">   ╰┬╯</tspan><tspan x="34" y="308">  ╭─┴─╮</tspan><tspan x="34" y="326">  ╱   │</tspan><tspan x="34" y="344">╱ ╰╮ ╭╯</tspan><tspan x="34" y="362">   ╰┬╯</tspan><tspan x="34" y="380">   ╱╲</tspan><tspan x="34" y="398">   │ ╲</tspan><tspan x="34" y="416">   │  │</tspan><tspan x="34" y="434">   │  ╵</tspan><tspan x="34" y="452">   ┴</tspan></text>
    <text class="art seg fig" xml:space="preserve" fill="#C4B5FD" transform="translate(-32.4 0)" style="animation-delay:0.64s;animation-duration:0.08s"><tspan x="34" y="272">   ╭─╮</tspan><tspan x="34" y="290">   ╰┬╯</tspan><tspan x="34" y="308">  ╭─┴─╮</tspan><tspan x="34" y="326">  ╱   │</tspan><tspan x="34" y="344">╱ ╰╮ ╭╯</tspan><tspan x="34" y="362">   ╰┬╯</tspan><tspan x="34" y="380">   ╱ ╲</tspan><tspan x="34" y="398">  ╱   ╲</tspan><tspan x="34" y="416">  │   │</tspan><tspan x="34" y="434">  │   │</tspan><tspan x="34" y="452">  ┴   ┴</tspan></text>
    <text class="art seg fig" xml:space="preserve" fill="#C4B5FD" transform="translate(-21.6 2)" style="animation-delay:0.72s;animation-duration:0.08s"><tspan x="34" y="272">   ╭─╮</tspan><tspan x="34" y="290">   ╰┬╯</tspan><tspan x="34" y="308">  ╭─┴─╮</tspan><tspan x="34" y="326">  ╱   │</tspan><tspan x="34" y="344">  ╰╮ ╭╯</tspan><tspan x="34" y="362">   ╰┬╯</tspan><tspan x="34" y="380">   ╱╲</tspan><tspan x="34" y="398">  ╱  ╲</tspan><tspan x="34" y="416">  │  │</tspan><tspan x="34" y="434">  │  │</tspan><tspan x="34" y="452">  ╵  ┴</tspan></text>
    <text class="art seg fig" xml:space="preserve" fill="#C4B5FD" transform="translate(-10.8 -3)" style="animation-delay:0.80s;animation-duration:0.08s"><tspan x="34" y="272">   ╭─╮</tspan><tspan x="34" y="290">   ╰┬╯</tspan><tspan x="34" y="308">  ╭─┴─╮</tspan><tspan x="34" y="326">  │   ╲</tspan><tspan x="34" y="344">  ╰╮ ╭╯</tspan><tspan x="34" y="362">   ╰┬╯</tspan><tspan x="34" y="380">    │╲</tspan><tspan x="34" y="398">    │ ╵</tspan><tspan x="34" y="416">    │</tspan><tspan x="34" y="434">    │</tspan><tspan x="34" y="452">    ┴</tspan></text>
    <text class="art seg fig" xml:space="preserve" fill="#C4B5FD" transform="translate(0.0 -1)" style="animation-delay:0.88s;animation-duration:0.08s"><tspan x="34" y="272">   ╭─╮</tspan><tspan x="34" y="290">   ╰┬╯</tspan><tspan x="34" y="308">  ╭─┴─╮</tspan><tspan x="34" y="326">  │   ╲</tspan><tspan x="34" y="344">  ╰╮ ╭╯╲</tspan><tspan x="34" y="362">   ╰┬╯</tspan><tspan x="34" y="380">   ╱╲</tspan><tspan x="34" y="398">   │ ╲</tspan><tspan x="34" y="416">   │  │</tspan><tspan x="34" y="434">   │  ╵</tspan><tspan x="34" y="452">   ┴</tspan></text>
    <text class="art seg fig" xml:space="preserve" fill="#C4B5FD" transform="translate(10.8 0)" style="animation-delay:0.96s;animation-duration:0.08s"><tspan x="34" y="272">   ╭─╮</tspan><tspan x="34" y="290">   ╰┬╯</tspan><tspan x="34" y="308">  ╭─┴─╮</tspan><tspan x="34" y="326">  │   ╲</tspan><tspan x="34" y="344">  ╰╮ ╭╯╲</tspan><tspan x="34" y="362">   ╰┬╯</tspan><tspan x="34" y="380">   ╱ ╲</tspan><tspan x="34" y="398">  ╱   ╲</tspan><tspan x="34" y="416">  │   │</tspan><tspan x="34" y="434">  │   │</tspan><tspan x="34" y="452">  ┴   ┴</tspan></text>
    <text class="art seg fig" xml:space="preserve" fill="#C4B5FD" transform="translate(21.6 2)" style="animation-delay:1.04s;animation-duration:0.08s"><tspan x="34" y="272">   ╭─╮</tspan><tspan x="34" y="290">   ╰┬╯</tspan><tspan x="34" y="308">  ╭─┴─╮</tspan><tspan x="34" y="326">  │   ╲</tspan><tspan x="34" y="344">  ╰╮ ╭╯</tspan><tspan x="34" y="362">   ╰┬╯</tspan><tspan x="34" y="380">   ╱╲</tspan><tspan x="34" y="398">  ╱  ╲</tspan><tspan x="34" y="416">  │  │</tspan><tspan x="34" y="434">  │  │</tspan><tspan x="34" y="452">  ╵  ┴</tspan></text>
    <text class="art seg fig" xml:space="preserve" fill="#C4B5FD" transform="translate(32.4 -3)" style="animation-delay:1.12s;animation-duration:0.08s"><tspan x="34" y="272">   ╭─╮</tspan><tspan x="34" y="290">   ╰┬╯</tspan><tspan x="34" y="308">  ╭─┴─╮</tspan><tspan x="34" y="326">  ╱   │</tspan><tspan x="34" y="344">  ╰╮ ╭╯</tspan><tspan x="34" y="362">   ╰┬╯</tspan><tspan x="34" y="380">    │╲</tspan><tspan x="34" y="398">    │ ╵</tspan><tspan x="34" y="416">    │</tspan><tspan x="34" y="434">    │</tspan><tspan x="34" y="452">    ┴</tspan></text>
    <text class="art seg fig" xml:space="preserve" fill="#C4B5FD" transform="translate(43.2 -1)" style="animation-delay:1.20s;animation-duration:0.08s"><tspan x="34" y="272">   ╭─╮</tspan><tspan x="34" y="290">   ╰┬╯</tspan><tspan x="34" y="308">  ╭─┴─╮</tspan><tspan x="34" y="326">  ╱   │</tspan><tspan x="34" y="344">╱ ╰╮ ╭╯</tspan><tspan x="34" y="362">   ╰┬╯</tspan><tspan x="34" y="380">   ╱╲</tspan><tspan x="34" y="398">   │ ╲</tspan><tspan x="34" y="416">   │  │</tspan><tspan x="34" y="434">   │  ╵</tspan><tspan x="34" y="452">   ┴</tspan></text>
    <text class="art seg fig" xml:space="preserve" fill="#C4B5FD" transform="translate(54.0 0)" style="animation-delay:1.28s;animation-duration:0.08s"><tspan x="34" y="272">   ╭─╮</tspan><tspan x="34" y="290">   ╰┬╯</tspan><tspan x="34" y="308">  ╭─┴─╮</tspan><tspan x="34" y="326">  ╱   │</tspan><tspan x="34" y="344">╱ ╰╮ ╭╯</tspan><tspan x="34" y="362">   ╰┬╯</tspan><tspan x="34" y="380">   ╱ ╲</tspan><tspan x="34" y="398">  ╱   ╲</tspan><tspan x="34" y="416">  │   │</tspan><tspan x="34" y="434">  │   │</tspan><tspan x="34" y="452">  ┴   ┴</tspan></text>
    <text class="art seg fig" xml:space="preserve" fill="#C4B5FD" transform="translate(64.8 2)" style="animation-delay:1.36s;animation-duration:0.08s"><tspan x="34" y="272">   ╭─╮</tspan><tspan x="34" y="290">   ╰┬╯</tspan><tspan x="34" y="308">  ╭─┴─╮</tspan><tspan x="34" y="326">  ╱   │</tspan><tspan x="34" y="344">  ╰╮ ╭╯</tspan><tspan x="34" y="362">   ╰┬╯</tspan><tspan x="34" y="380">   ╱╲</tspan><tspan x="34" y="398">  ╱  ╲</tspan><tspan x="34" y="416">  │  │</tspan><tspan x="34" y="434">  │  │</tspan><tspan x="34" y="452">  ╵  ┴</tspan></text>
    <text class="art seg fig" xml:space="preserve" fill="#C4B5FD" transform="translate(75.6 -3)" style="animation-delay:1.44s;animation-duration:0.08s"><tspan x="34" y="272">   ╭─╮</tspan><tspan x="34" y="290">   ╰┬╯</tspan><tspan x="34" y="308">  ╭─┴─╮</tspan><tspan x="34" y="326">  │   ╲</tspan><tspan x="34" y="344">  ╰╮ ╭╯</tspan><tspan x="34" y="362">   ╰┬╯</tspan><tspan x="34" y="380">    │╲</tspan><tspan x="34" y="398">    │ ╵</tspan><tspan x="34" y="416">    │</tspan><tspan x="34" y="434">    │</tspan><tspan x="34" y="452">    ┴</tspan></text>
    <text class="art seg fig" xml:space="preserve" fill="#C4B5FD" transform="translate(86.4 -1)" style="animation-delay:1.52s;animation-duration:0.08s"><tspan x="34" y="272">   ╭─╮</tspan><tspan x="34" y="290">   ╰┬╯</tspan><tspan x="34" y="308">  ╭─┴─╮</tspan><tspan x="34" y="326">  │   ╲</tspan><tspan x="34" y="344">  ╰╮ ╭╯╲</tspan><tspan x="34" y="362">   ╰┬╯</tspan><tspan x="34" y="380">   ╱╲</tspan><tspan x="34" y="398">   │ ╲</tspan><tspan x="34" y="416">   │  │</tspan><tspan x="34" y="434">   │  ╵</tspan><tspan x="34" y="452">   ┴</tspan></text>
    <text class="art seg fig" xml:space="preserve" fill="#C4B5FD" transform="translate(97.2 0)" style="animation-delay:1.60s;animation-duration:0.08s"><tspan x="34" y="272">   ╭─╮</tspan><tspan x="34" y="290">   ╰┬╯</tspan><tspan x="34" y="308">  ╭─┴─╮</tspan><tspan x="34" y="326">  │   ╲</tspan><tspan x="34" y="344">  ╰╮ ╭╯╲</tspan><tspan x="34" y="362">   ╰┬╯</tspan><tspan x="34" y="380">   ╱ ╲</tspan><tspan x="34" y="398">  ╱   ╲</tspan><tspan x="34" y="416">  │   │</tspan><tspan x="34" y="434">  │   │</tspan><tspan x="34" y="452">  ┴   ┴</tspan></text>
    <text class="art seg fig" xml:space="preserve" fill="#C4B5FD" transform="translate(108.0 2)" style="animation-delay:1.68s;animation-duration:0.08s"><tspan x="34" y="272">   ╭─╮</tspan><tspan x="34" y="290">   ╰┬╯</tspan><tspan x="34" y="308">  ╭─┴─╮</tspan><tspan x="34" y="326">  │   ╲</tspan><tspan x="34" y="344">  ╰╮ ╭╯</tspan><tspan x="34" y="362">   ╰┬╯</tspan><tspan x="34" y="380">   ╱╲</tspan><tspan x="34" y="398">  ╱  ╲</tspan><tspan x="34" y="416">  │  │</tspan><tspan x="34" y="434">  │  │</tspan><tspan x="34" y="452">  ╵  ┴</tspan></text>
    <text class="art seg fig" xml:space="preserve" fill="#C4B5FD" transform="translate(118.8 -3)" style="animation-delay:1.76s;animation-duration:0.08s"><tspan x="34" y="272">   ╭─╮</tspan><tspan x="34" y="290">   ╰┬╯</tspan><tspan x="34" y="308">  ╭─┴─╮</tspan><tspan x="34" y="326">  ╱   │</tspan><tspan x="34" y="344">  ╰╮ ╭╯</tspan><tspan x="34" y="362">   ╰┬╯</tspan><tspan x="34" y="380">    │╲</tspan><tspan x="34" y="398">    │ ╵</tspan><tspan x="34" y="416">    │</tspan><tspan x="34" y="434">    │</tspan><tspan x="34" y="452">    ┴</tspan></text>
    <text class="art seg fig" xml:space="preserve" fill="#C4B5FD" transform="translate(129.6 -1)" style="animation-delay:1.84s;animation-duration:0.08s"><tspan x="34" y="272">   ╭─╮</tspan><tspan x="34" y="290">   ╰┬╯</tspan><tspan x="34" y="308">  ╭─┴─╮</tspan><tspan x="34" y="326">  ╱   │</tspan><tspan x="34" y="344">╱ ╰╮ ╭╯</tspan><tspan x="34" y="362">   ╰┬╯</tspan><tspan x="34" y="380">   ╱╲</tspan><tspan x="34" y="398">   │ ╲</tspan><tspan x="34" y="416">   │  │</tspan><tspan x="34" y="434">   │  ╵</tspan><tspan x="34" y="452">   ┴</tspan></text>
    <text class="art seg fig" xml:space="preserve" fill="#C4B5FD" transform="translate(129.6 0)" style="animation-delay:1.92s;animation-duration:0.13s"><tspan x="34" y="272">   ╭─╮</tspan><tspan x="34" y="290">   ╰┬╯</tspan><tspan x="34" y="308">  ╭─┴─╮</tspan><tspan x="34" y="326">  │   │</tspan><tspan x="34" y="344">  ╰╮ ╭╯</tspan><tspan x="34" y="362">   ╰┬╯</tspan><tspan x="34" y="380">    │</tspan><tspan x="34" y="398">    │</tspan><tspan x="34" y="416">   ╱ ╲</tspan><tspan x="34" y="434">   │ │</tspan><tspan x="34" y="452">   ┴ ┴</tspan></text>
    <text class="art seg fig" xml:space="preserve" fill="#C4B5FD" transform="translate(129.6 0)" style="animation-delay:2.05s;animation-duration:0.13s"><tspan x="34" y="290">   ╭─╮</tspan><tspan x="34" y="308">   ╰┬╯</tspan><tspan x="34" y="326">  ╭─┴─╮</tspan><tspan x="34" y="344">  ╰╮ ╭╯</tspan><tspan x="34" y="362">   ╰┬╯</tspan><tspan x="34" y="380">   ╱╲</tspan><tspan x="34" y="398">   │ ╲</tspan><tspan x="34" y="416">   │  │</tspan><tspan x="34" y="434">   │  │</tspan><tspan x="34" y="452">   ┴  ┴</tspan></text>
    <text class="art seg fig" xml:space="preserve" fill="#C4B5FD" transform="translate(129.6 0)" style="animation-delay:2.18s;animation-duration:0.13s"><tspan x="34" y="290">   ╭─╮</tspan><tspan x="34" y="308">   ╰┬╯</tspan><tspan x="34" y="326">  ╭─┴─╮</tspan><tspan x="34" y="344">  ╰╮ ╭╯</tspan><tspan x="34" y="362">   ╰┬╯</tspan><tspan x="34" y="380">    ╰─╮</tspan><tspan x="34" y="398">      ╰─╮</tspan><tspan x="34" y="416">        │</tspan><tspan x="34" y="434">        │</tspan><tspan x="34" y="452">        ╰─</tspan></text>
    <text class="art body" xml:space="preserve" fill="#C4B5FD" transform="translate(129.6 0)"><tspan x="34" y="362">  ╰╮ ╭╯</tspan><tspan x="34" y="380">   ╰┬╯</tspan><tspan x="34" y="398">    ╰───╮</tspan><tspan x="34" y="416">        │</tspan><tspan x="34" y="434">        │</tspan><tspan x="34" y="452">        ╰─</tspan></text>
    <text class="art body nod" xml:space="preserve" fill="#C4B5FD" transform="translate(129.6 0)"><tspan x="34" y="290">   ╭─╮</tspan><tspan x="34" y="308">   ╰┬╯</tspan></text>
    <text class="art seg fig" xml:space="preserve" fill="#C4B5FD" transform="translate(129.6 0)" style="animation-delay:2.31s;animation-duration:0.68s"><tspan x="34" y="326">  ╭─┴─╮</tspan><tspan x="34" y="344">  │   ╰─────┬</tspan></text>
    <g class="hands">
    <text class="art ha litfig fig" xml:space="preserve" fill="#E9DDFF" transform="translate(129.6 0)"><tspan x="34" y="326">  ╭─┴─╮</tspan><tspan x="34" y="344">  │   ╰───┬</tspan></text>
    <text class="art hb litfig fig" xml:space="preserve" fill="#E9DDFF" transform="translate(129.6 0)"><tspan x="34" y="326">  ╭─┴─╮</tspan><tspan x="34" y="344">  │   ╰────┬</tspan></text>
    </g>
    <rect width="96" height="540" fill="url(#edge)"/>
    <rect width="1200" height="540" fill="url(#vignette)"/>

    <!-- right: the terminal it is printing to -->
    <g>
      <ellipse cx="893" cy="268" rx="380" ry="290" fill="url(#termGlow)"/>
      <g filter="url(#drop)">
        <path d="M618 80v398a10 10 0 0 0 10 10h530a10 10 0 0 0 10 -10v-398z" fill="url(#glass)" fill-opacity="0.97"/>
        <path d="M618 80v-22a10 10 0 0 1 10 -10h530a10 10 0 0 1 10 10v22z" fill="url(#bar)"/>
      </g>
      <path d="M618 80h550" stroke="#05070B" stroke-opacity="0.9"/>
      <path d="M628 48.5h530" stroke="#FFFFFF" stroke-opacity="0.14"/>
      <rect x="618.5" y="48.5" width="550" height="440" rx="10" fill="none" stroke="#FFFFFF" stroke-opacity="0.09"/>
      <g stroke="#000000" stroke-opacity="0.16">
        <circle cx="639" cy="65" r="5.5" fill="#FF5F57"/><circle cx="659" cy="65" r="5.5" fill="#FEBC2E"/><circle cx="679" cy="65" r="5.5" fill="#28C840"/>
      </g>
      <text x="893" y="69" class="dim sm" text-anchor="middle">varad@more — -zsh — 64×20</text>

      <g>
        <text x="640" y="110" fill="#7EE787">varad<tspan class="dim">@</tspan>more<tspan class="dim"> ~ </tspan><tspan fill="#A78BFA">%</tspan></text>
        <text class="type" x="757" y="110" fill="#E6EDF3">./profile.sh</text>
        <g class="seg" style="animation-delay:0s;animation-duration:3.25s">
          <rect class="caret" x="757" y="98" width="8" height="15" fill="#E6EDF3"/>
        </g>
      </g>

      <g class="in" style="animation-delay:4.15s"><text x="640" y="150" fill="#3FB950">[<tspan fill="#7EE787"> ok </tspan>]</text><text x="692" y="150" class="dim">reading profile</text></g>

      <g class="in" style="animation-delay:4.75s">
        <text x="640" y="210" font-weight="700" fill="#E6EDF3">Varad More<tspan fill="#30363D" font-weight="400"> ─────────────────────────────────────────────────────</tspan></text>
      </g>

      <g class="in" style="animation-delay:5.05s">
        <text x="640" y="250" class="dim">Role</text><text x="718" y="250" class="dim">:</text>
        <text x="734" y="250" fill="#E6EDF3">Software Engineer</text>
      </g>
      <g class="in" style="animation-delay:5.19s">
        <text x="640" y="270" class="dim">Focus</text><text x="718" y="270" class="dim">:</text>
        <text x="734" y="270" class="focus f1" fill="#A78BFA">AI systems</text>
        <text x="734" y="270" class="focus f2" fill="#A78BFA">cloud infrastructure</text>
        <text x="734" y="270" class="focus f3" fill="#A78BFA">accelerated computing</text>
        <text x="734" y="270" class="focus f4" fill="#A78BFA">product engineering</text>
      </g>
      <g class="in" style="animation-delay:5.33s">
        <text x="640" y="290" class="dim">Stack</text><text x="718" y="290" class="dim">:</text>
        <text x="734" y="290" fill="#E6EDF3">Python, C++, CUDA, Triton, PyTorch, AWS</text>
      </g>
      <g class="in" style="animation-delay:5.47s">
        <text x="640" y="310" class="dim">Education</text><text x="718" y="310" class="dim">:</text>
        <text x="734" y="310" fill="#E6EDF3">MS Computer Science, Arizona State University</text>
      </g>
      <g class="in" style="animation-delay:5.61s">
        <text x="640" y="330" class="dim">Experience</text><text x="718" y="330" class="dim">:</text>
        <text x="734" y="330" fill="#E6EDF3">Former Co-Founder | Founding Engineer at SharpData</text>
      </g>
      <g class="in" style="animation-delay:5.75s">
        <text x="640" y="350" class="dim">Status</text><text x="718" y="350" class="dim">:</text>
        <circle class="halo" cx="739" cy="346" r="3.5" fill="#3FB950"/><circle cx="739" cy="346" r="3.5" fill="#3FB950"/><text x="754" y="350" fill="#7EE787">open to interesting problems</text>
      </g>

      <g class="in" style="animation-delay:6.20s"><text x="640" y="390" fill="#3FB950">[<tspan fill="#7EE787"> ok </tspan>]</text><text x="692" y="390" class="dim">EOF</text></g>
      <g class="in" style="animation-delay:6.4s"><text x="640" y="410" fill="#7EE787">varad<tspan class="dim">@</tspan>more<tspan class="dim"> ~ </tspan><tspan fill="#A78BFA">%</tspan></text></g>
      <rect class="caret2" x="757" y="398" width="8" height="15" fill="#E6EDF3"/>
    </g>
  </g>
  <rect x="0.5" y="0.5" width="1199" height="539" rx="16" fill="none" stroke="#FFFFFF" stroke-opacity="0.09"/>
</svg>
